<svg xmlns="http://www.w3.org/2000/svg" viewBox="0 0 100 100">
  <circle cx="50" cy="50" r="45" fill="#fff"/>
  <path d="M35.5 47.4c0 .7.1 1.3.2 1.7.2.5.4.9.6 1.4.1.2.1.3.1.4 0 .2-.1.3-.3.5l-1.1.7c-.2.1-.3.1-.5.1-.2 0-.4-.1-.6-.3-.3-.3-.5-.6-.7-.9-.2-.3-.4-.7-.6-1.2-1.5 1.8-3.4 2.7-5.7 2.7-1.6 0-2.9-.5-3.8-1.4-.9-.9-1.4-2.1-1.4-3.6 0-1.6.6-2.9 1.7-3.9 1.1-1 2.7-1.5 4.6-1.5.6 0 1.3 0 2 .1.7.1 1.4.2 2.2.4v-1.4c0-1.4-.3-2.4-.9-3-.6-.6-1.6-.9-3-.9-.6 0-1.3.1-2 .2-.7.2-1.3.4-2 .7-.3.1-.5.2-.7.2-.1 0-.2 0-.3-.1-.1-.1-.1-.2-.1-.4v-.6c0-.2 0-.4.1-.5.1-.1.2-.2.4-.3.7-.4 1.5-.7 2.4-.9.9-.2 1.9-.3 2.9-.3 2.2 0 3.8.5 4.9 1.5 1 1 1.6 2.5 1.6 4.5v6zm-7.9 2.8c.6 0 1.3-.1 1.9-.3.7-.2 1.3-.6 1.8-1.2.3-.3.5-.7.7-1.2.1-.5.2-1.1.2-1.8v-.9c-.6-.1-1.1-.2-1.7-.3-.6-.1-1.2-.1-1.7-.1-1.2 0-2.1.2-2.7.7-.6.5-.9 1.1-.9 2 0 .8.2 1.4.6 1.8.4.4 1 .6 1.8.6zm14.1 2c-.3 0-.5-.1-.6-.2-.1-.1-.3-.3-.4-.7l-4.1-13.6c-.1-.3-.1-.5-.1-.7 0-.3.1-.4.4-.4h1.7c.3 0 .5.1.6.2.1.1.2.3.3.7l3 11.7 2.7-11.7c.1-.3.2-.5.3-.7.1-.1.3-.2.6-.2h1.4c.3 0 .5.1.6.2.1.1.2.3.3.7l2.8 11.8 3-11.8c.1-.3.2-.5.3-.7.1-.1.3-.2.6-.2h1.6c.3 0 .4.1.4.4 0 .1 0 .2 0 .3 0 .1-.1.3-.1.4l-4.2 13.6c-.1.3-.2.6-.4.7-.1.1-.3.2-.6.2h-1.5c-.3 0-.5-.1-.6-.2-.1-.1-.2-.3-.3-.7l-2.7-11.3-2.7 11.3c-.1.3-.2.6-.3.7-.1.1-.3.2-.6.2h-1.5zm21.7.5c-1 0-2-.1-2.9-.3-.9-.2-1.6-.5-2.2-.8-.3-.2-.5-.4-.6-.5-.1-.2-.1-.4-.1-.5v-.7c0-.3.1-.4.3-.4.1 0 .2 0 .3.1.1 0 .2.1.4.2.6.3 1.3.5 2 .7.7.2 1.4.2 2.2.2 1.2 0 2.1-.2 2.7-.6.6-.4.9-1 .9-1.7 0-.5-.2-.9-.5-1.3-.3-.3-.9-.6-1.8-.9l-2.6-.8c-1.3-.4-2.2-1-2.8-1.8-.6-.8-.9-1.6-.9-2.5 0-.7.1-1.4.4-1.9.3-.6.7-1.1 1.2-1.5.5-.4 1.1-.7 1.8-.9.7-.2 1.4-.3 2.2-.3.4 0 .8 0 1.2.1.4 0 .8.1 1.1.2.3.1.7.2 1 .3.3.1.5.2.7.4.2.1.4.3.5.4.1.1.1.3.1.5v.6c0 .3-.1.4-.3.4-.1 0-.3-.1-.5-.2-1.2-.5-2.5-.8-3.9-.8-1.1 0-1.9.2-2.5.5-.6.4-.9.9-.9 1.6 0 .5.2 1 .5 1.3.3.4.9.7 1.9 1l2.5.8c1.3.4 2.2 1 2.7 1.7.6.7.8 1.5.8 2.4 0 .7-.1 1.4-.4 2-.3.6-.7 1.1-1.2 1.5-.5.4-1.1.7-1.9 1-.7.2-1.5.3-2.4.3zm11.2-17.5v-1.7c0-.3.1-.4.3-.5l12.1-3c.1 0 .2 0 .3 0 .2 0 .3.1.3.3v1.4c0 .3-.1.4-.3.5l-5.1 1.2v13.4c0 .3-.1.4-.4.4h-1.6c-.3 0-.4-.1-.4-.4V35.2l-4.9 1.2c-.2 0-.3.1-.3.3z" fill="#F90"/>
  <path d="M63.5 64.7c-7.4 5.5-18.2 8.4-27.5 8.4-13 0-24.7-4.8-33.6-12.8-.7-.6-.1-1.5.8-.9 9.6 5.6 21.5 9 33.8 9 8.3 0 17.4-1.7 25.7-5.3 1.3-.6 2.3.8 1 1.6z" fill="#F90"/>
  <path d="M66.7 61c-.9-1.2-6.2-.6-8.6-.3-.7.1-.8-.5-.2-.9 4.2-3 11.1-2.1 11.9-.1.8 2-2.2 10.4-6.4 14.8-.6.6-1.2.3-.9-.4.9-2.3 3-7.3 4.2-13.1z" fill="#F90"/>
</svg> 