<svg xmlns="http://www.w3.org/2000/svg" viewBox="0 0 100 100">
  <circle cx="50" cy="50" r="45" fill="#fff"/>
  <path d="M76.6 50c0-1.8-.2-3.5-.5-5.2H50v9.8h14.9c-.6 3.4-2.6 6.3-5.6 8.2v6.8h9c5.3-4.9 8.3-12 8.3-19.6z" fill="#4285F4"/>
  <path d="M50 77c7.5 0 13.8-2.5 18.4-6.7l-9-7c-2.5 1.7-5.7 2.6-9.4 2.6-7.2 0-13.3-4.9-15.5-11.4h-9.3v7c4.6 9.1 14 15.5 24.8 15.5z" fill="#34A853"/>
  <path d="M34.5 54.5c-.6-1.7-.9-3.5-.9-5.5s.3-3.8.9-5.5v-7h-9.3C23.1 40.7 22 45.2 22 50s1.1 9.3 3.2 13.5l9.3-9z" fill="#FBBC05"/>
  <path d="M50 33.1c4.1 0 7.7 1.4 10.6 4.2l8-8c-4.8-4.5-11.1-7.2-18.6-7.2-10.8 0-20.2 6.4-24.8 15.5l9.3 7c2.2-6.5 8.3-11.5 15.5-11.5z" fill="#EA4335"/>
</svg> 