<svg xmlns="http://www.w3.org/2000/svg" viewBox="0 0 100 100">
  <circle cx="50" cy="50" r="45" fill="#fff"/>
  <path d="M42.2 70.9s-2.3 1.3 1.6 1.8c4.8.6 7.2.5 12.5-.5 0 0 1.4.9 3.3 1.6-11.8 5.1-26.7-.3-17.4-2.9zm-1.4-6.5s-2.6 1.9 1.3 2.3c5.1.6 9.1.6 16-.8 0 0 1 1 2.5 1.5-14.3 4.2-30.2.3-19.8-3zm26.4 11.5s1.7 1.4-1.9 2.5c-6.8 2.1-28.5 2.7-34.5.1-2.2-.9 1.9-2.2 3.1-2.5 1.3-.3 2.1-.2 2.1-.2-2.4-1.7-15.4 3.3-6.6 4.7 24 3.9 43.7-1.7 37.8-4.6zm-24.6-17.8s-10.9 2.6-3.9 3.5c3 .4 8.9.3 14.5-.1 4.5-.4 9-1.2 9-1.2s-1.6.7-2.7 1.5c-11.1 2.9-32.4 1.6-26.3-1.4 5.2-2.5 9.4-2.3 9.4-2.3zm19.3 10.8c11.3-5.8 6.1-11.5 2.4-10.8-.9.2-1.3.4-1.3.4s.3-.5 1-.8c7.2-2.5 12.8 7.5-2.3 11.5 0 0 .2-.2.2-.3zm-17.7 15.2c10.8.7 27.5-.4 27.9-5.7 0 0-.8 2-9 3.6-9.3 1.8-20.7 1.6-27.5.4 0 0 1.4 1.2 8.6 1.7z" fill="#4E7896"/>
  <path d="M56.7 18s6.3 6.3-6 15.9c-9.8 7.7-2.2 12.1 0 17.1-5.7-5.1-9.9-9.7-7.1-13.9 4.1-6.2 15.5-9.2 13.1-19.1zm-3.6 29c2.9 3.4-.8 6.4-.8 6.4s7.4-3.8 4-8.6c-3.2-4.5-5.6-6.7 7.6-14.3 0 0-20.7 5.2-10.8 16.5z" fill="#F58219"/>
</svg> 