<svg xmlns="http://www.w3.org/2000/svg" viewBox="0 0 100 100">
  <path d="M50 5C25.1 5 5 25.1 5 50s20.1 45 45 45 45-20.1 45-45S74.9 5 50 5zm0 10c19.3 0 35 15.7 35 35S69.3 85 50 85 15 69.3 15 50s15.7-35 35-35z" fill="#fff"/>
  <path d="M50 15c-19.3 0-35 15.7-35 35s15.7 35 35 35 35-15.7 35-35-15.7-35-35-35zm-5 15h10c8.3 0 15 6.7 15 15v10c0 8.3-6.7 15-15 15H45c-8.3 0-15-6.7-15-15V45c0-8.3 6.7-15 15-15z" fill="#fbf0df"/>
  <path d="M45 30c-8.3 0-15 6.7-15 15v10c0 8.3 6.7 15 15 15h10c8.3 0 15-6.7 15-15V45c0-8.3-6.7-15-15-15H45zm5 10c8.3 0 15 6.7 15 15s-6.7 15-15 15-15-6.7-15-15 6.7-15 15-15z" fill="#fff"/>
  <path d="M50 40c-8.3 0-15 6.7-15 15s6.7 15 15 15 15-6.7 15-15-6.7-15-15-15zm0 10c2.8 0 5 2.2 5 5s-2.2 5-5 5-5-2.2-5-5 2.2-5 5-5z" fill="#000"/>
  <circle cx="50" cy="55" r="5" fill="#fbf0df"/>
</svg> 