<svg xmlns="http://www.w3.org/2000/svg" viewBox="0 0 100 100">
  <circle cx="50" cy="50" r="45" fill="#fff"/>
  <path d="M15.8 51.6c-.1 0-.1-.1 0 0-.1-.1-.1-.1-.1-.2v-.1c0-.1.1-.2.2-.2h4.5c.1 0 .2.1.2.2v.1c0 .1-.1.2-.2.2h-4.6zm6.4 0c-.1 0-.2-.1-.2-.2v-.1c0-.1.1-.2.2-.2h4.5c.1 0 .2.1.2.2v.1c0 .1-.1.2-.2.2h-4.5zm6.4 0c-.1 0-.2-.1-.2-.2v-.1c0-.1.1-.2.2-.2h4.5c.1 0 .2.1.2.2v.1c0 .1-.1.2-.2.2h-4.5z" fill="#00ACD7"/>
  <path d="M49.8 39.7c-.5-2.2-3.3-1.2-3.3-1.2l-1.8 1.2s-9.5-1.5-18.2 3.5c0 0-8.3 4.2-8.8 13.2 0 0-.7 8.3 6.2 12.7 0 0 4.4 3.1 11.8 1.2 0 0 5.1-1.5 9.5-6 0 0 2-1.9 2.2-2.2.2-.3 1.1-1.1 2.2-.3 1.1.8 1.1 2.4-.2 3.3-1.3.9-2.9 2.2-2.9 2.2s-5.1 4.6-12.5 5.7c0 0-6.2 1.1-12.5-1.8 0 0-5.3-2.4-7.7-7.9 0 0-2.4-4.6-1.5-10.5 0 0 .9-5.9 5.5-10.1 0 0 3.8-3.8 9.9-5.3 0 0 4.6-1.3 10.1-.7 0 0 4.4.4 7.9 2.2 0 0 1.5.7 2.2 1.1.7.4 1.8 1.1 1.8 1.1s.7.4.2 1.5c-.2.2-.1.1-.1.1z" fill="#00ACD7"/>
  <path d="M84.2 51.6c.1 0 .1-.1 0 0 .1-.1.1-.1.1-.2v-.1c0-.1-.1-.2-.2-.2h-4.5c-.1 0-.2.1-.2.2v.1c0 .1.1.2.2.2h4.6zm-6.4 0c.1 0 .2-.1.2-.2v-.1c0-.1-.1-.2-.2-.2h-4.5c-.1 0-.2.1-.2.2v.1c0 .1.1.2.2.2h4.5zm-6.4 0c.1 0 .2-.1.2-.2v-.1c0-.1-.1-.2-.2-.2h-4.5c-.1 0-.2.1-.2.2v.1c0 .1.1.2.2.2h4.5z" fill="#00ACD7"/>
  <path d="M50.2 39.7c.5-2.2 3.3-1.2 3.3-1.2l1.8 1.2s9.5-1.5 18.2 3.5c0 0 8.3 4.2 8.8 13.2 0 0 .7 8.3-6.2 12.7 0 0-4.4 3.1-11.8 1.2 0 0-5.1-1.5-9.5-6 0 0-2-1.9-2.2-2.2-.2-.3-1.1-1.1-2.2-.3-1.1.8-1.1 2.4.2 3.3 1.3.9 2.9 2.2 2.9 2.2s5.1 4.6 12.5 5.7c0 0 6.2 1.1 12.5-1.8 0 0 5.3-2.4 7.7-7.9 0 0 2.4-4.6 1.5-10.5 0 0-.9-5.9-5.5-10.1 0 0-3.8-3.8-9.9-5.3 0 0-4.6-1.3-10.1-.7 0 0-4.4.4-7.9 2.2 0 0-1.5.7-2.2 1.1-.7.4-1.8 1.1-1.8 1.1s-.7.4-.2 1.5c.2.2.1.1.1.1z" fill="#00ACD7"/>
</svg> 