<svg xmlns="http://www.w3.org/2000/svg" viewBox="0 0 100 100">
  <circle cx="50" cy="50" r="45" fill="#fff"/>
  <path d="M35 30c-2.8 0-5 2.2-5 5s2.2 5 5 5 5-2.2 5-5-2.2-5-5-5zm30 0c-2.8 0-5 2.2-5 5s2.2 5 5 5 5-2.2 5-5-2.2-5-5-5zm-30 5c.6 0 1 .4 1 1s-.4 1-1 1-1-.4-1-1 .4-1 1-1zm30 0c.6 0 1 .4 1 1s-.4 1-1 1-1-.4-1-1 .4-1 1-1zM35 45c-1.1 0-2 .9-2 2v8c0 1.1.9 2 2 2s2-.9 2-2v-8c0-1.1-.9-2-2-2zm30 0c-1.1 0-2 .9-2 2v8c0 1.1.9 2 2 2s2-.9 2-2v-8c0-1.1-.9-2-2-2zm-15 5c-5.5 0-10 4.5-10 10 0 5.5 4.5 10 10 10s10-4.5 10-10c0-5.5-4.5-10-10-10zm0 5c2.8 0 5 2.2 5 5s-2.2 5-5 5-5-2.2-5-5 2.2-5 5-5z" fill="#FFBD59"/>
</svg> 