<svg xmlns="http://www.w3.org/2000/svg" viewBox="0 0 100 100">
  <circle cx="50" cy="50" r="45" fill="#fff"/>
  <path d="M83.3 50c0-18.4-14.9-33.3-33.3-33.3S16.7 31.6 16.7 50c0 16.6 12.1 30.4 28 32.9V60.4h-8.4V50h8.4v-7.3c0-8.3 4.9-12.9 12.5-12.9 3.6 0 7.4.6 7.4.6v8.2h-4.2c-4.1 0-5.4 2.6-5.4 5.2V50h9.2l-1.5 10.4h-7.7v22.5c15.9-2.5 28-16.3 28-32.9z" fill="#0866FF"/>
  <path d="M58.5 60.4l1.5-10.4h-9.2v-6.7c0-2.6 1.3-5.2 5.4-5.2h4.2v-8.2s-3.8-.6-7.4-.6c-7.6 0-12.5 4.6-12.5 12.9V50h-8.4v10.4h8.4v22.5c1.7.3 3.4.4 5.2.4 1.8 0 3.5-.1 5.2-.4V60.4h7.7z" fill="#fff"/>
</svg> 