<svg xmlns="http://www.w3.org/2000/svg" viewBox="0 0 100 100">
  <circle cx="50" cy="50" r="45" fill="#fff"/>
  <path d="M49.7 25c-12.6 0-11.8 5.5-11.8 5.5l.1 5.7h12v1.7H32.5s-8.5-.9-8.5 12.4c0 13.3 7.4 12.8 7.4 12.8h4.4v-6.2s-.2-7.4 7.3-7.4h12.6s7.1.1 7.1-6.8V31.9s1.1-6.9-13.1-6.9zm-7.2 4c1.2 0 2.2 1 2.2 2.2s-1 2.2-2.2 2.2-2.2-1-2.2-2.2 1-2.2 2.2-2.2z" fill="#366A96"/>
  <path d="M50.3 75c12.6 0 11.8-5.5 11.8-5.5l-.1-5.7h-12v-1.7h17.5s8.5.9 8.5-12.4c0-13.3-7.4-12.8-7.4-12.8h-4.4v6.2s.2 7.4-7.3 7.4H44.3s-7.1-.1-7.1 6.8v10.8s-1.1 6.9 13.1 6.9zm7.2-4c-1.2 0-2.2-1-2.2-2.2s1-2.2 2.2-2.2 2.2 1 2.2 2.2-1 2.2-2.2 2.2z" fill="#FFD43B"/>
</svg> 