<svg xmlns="http://www.w3.org/2000/svg" viewBox="0 0 100 100">
  <circle cx="50" cy="50" r="45" fill="#fff"/>
  <path d="M76.5 35.7L50 75.5 23.5 35.7h53z" fill="#CC342D"/>
  <path d="M76.5 35.7L50 75.5l26.5-10.2V35.7z" fill="#CC342D"/>
  <path d="M23.5 35.7L50 75.5l-26.5-10.2V35.7z" fill="#CC342D"/>
  <path d="M23.5 35.7h53L63.8 24.5H36.2L23.5 35.7z" fill="#CC342D"/>
  <path d="M36.2 24.5h27.6L50 35.7 36.2 24.5z" fill="#CC342D"/>
  <path d="M50 75.5L36.2 24.5 50 35.7V75.5z" fill="#CC342D"/>
  <path d="M50 75.5l13.8-51 .1 11.2L50 75.5z" fill="#CC342D"/>
  <path d="M63.8 24.5L76.5 35.7 63.9 35.6l-.1-11.1z" fill="#CC342D"/>
  <path d="M36.2 24.5L23.5 35.7l13.8-.1-.1-11.1z" fill="#CC342D"/>
</svg> 